<svg width="61" height="28" viewBox="0 0 61 28" fill="none" xmlns="http://www.w3.org/2000/svg">
<path d="M0.275568 27V0.818181H5.81108V11.6207H17.0483V0.818181H22.571V27H17.0483V16.1847H5.81108V27H0.275568ZM50.2358 9.98438H44.6364C44.5341 9.25994 44.3253 8.61648 44.0099 8.05398C43.6946 7.48295 43.2898 6.99716 42.7955 6.59659C42.3011 6.19602 41.7301 5.8892 41.0824 5.67614C40.4432 5.46307 39.7486 5.35653 38.9986 5.35653C37.6435 5.35653 36.4631 5.69318 35.4574 6.36648C34.4517 7.03125 33.6719 8.00284 33.1179 9.28125C32.5639 10.5511 32.2869 12.0937 32.2869 13.9091C32.2869 15.7756 32.5639 17.3437 33.1179 18.6136C33.6804 19.8835 34.4645 20.8423 35.4702 21.4901C36.4759 22.1378 37.6392 22.4616 38.9602 22.4616C39.7017 22.4616 40.3878 22.3636 41.0185 22.1676C41.6577 21.9716 42.2244 21.6861 42.7188 21.3111C43.2131 20.9276 43.6222 20.4631 43.946 19.9176C44.2784 19.3722 44.5085 18.75 44.6364 18.0511L50.2358 18.0767C50.0909 19.2784 49.7287 20.4375 49.1491 21.554C48.5781 22.6619 47.8068 23.6548 46.8352 24.5327C45.8722 25.402 44.7216 26.0923 43.3835 26.6037C42.054 27.1065 40.5497 27.358 38.8707 27.358C36.5355 27.358 34.4474 26.8295 32.6065 25.7727C30.7741 24.7159 29.3253 23.1861 28.2599 21.1832C27.2031 19.1804 26.6747 16.7557 26.6747 13.9091C26.6747 11.054 27.2116 8.625 28.2855 6.62216C29.3594 4.61932 30.8168 3.09375 32.6577 2.04545C34.4986 0.988636 36.5696 0.460226 38.8707 0.460226C40.3878 0.460226 41.794 0.673295 43.0895 1.09943C44.3935 1.52557 45.5483 2.14773 46.554 2.96591C47.5597 3.77557 48.3778 4.76846 49.0085 5.9446C49.6477 7.12074 50.0568 8.46733 50.2358 9.98438ZM57.2862 27.3324C56.4425 27.3324 55.718 27.0341 55.1129 26.4375C54.5163 25.8324 54.218 25.108 54.218 24.2642C54.218 23.429 54.5163 22.7131 55.1129 22.1165C55.718 21.5199 56.4425 21.2216 57.2862 21.2216C58.1044 21.2216 58.8203 21.5199 59.4339 22.1165C60.0476 22.7131 60.3544 23.429 60.3544 24.2642C60.3544 24.8267 60.2095 25.3423 59.9197 25.8111C59.6385 26.2713 59.2678 26.642 58.8075 26.9233C58.3473 27.196 57.8402 27.3324 57.2862 27.3324Z" fill="url(#paint0_linear_49_203)"/>
<defs>
<linearGradient id="paint0_linear_49_203" x1="-2" y1="-8" x2="63" y2="-8" gradientUnits="userSpaceOnUse">
<stop stop-color="#378BA4"/>
<stop offset="1" stop-color="#81BECE"/>
</linearGradient>
</defs>
</svg>
